<?xml version="1.0" encoding="utf-8" standalone="no"?>
<!DOCTYPE svg PUBLIC "-//W3C//DTD SVG 1.1//EN"
  "http://www.w3.org/Graphics/SVG/1.1/DTD/svg11.dtd">
<!-- Created with matplotlib (https://matplotlib.org/) -->
<svg height="423.524037pt" version="1.1" viewBox="0 0 638.524795 423.524037" width="638.524795pt" xmlns="http://www.w3.org/2000/svg" xmlns:xlink="http://www.w3.org/1999/xlink">
 <defs>
  <style type="text/css">
*{stroke-linecap:butt;stroke-linejoin:round;}
  </style>
 </defs>
 <g id="figure_1">
  <g id="patch_1">
   <path d="M 0 423.524037 
L 638.524795 423.524037 
L 638.524795 0 
L 0 0 
z
" style="fill:none;"/>
  </g>
  <g id="axes_1">
   <g id="patch_2">
    <path d="M 81.335938 387.532162 
L 547.931938 387.532162 
L 547.931938 52.792162 
L 81.335938 52.792162 
z
" style="fill:#ffffff;"/>
   </g>
   <g id="matplotlib.axis_1">
    <g id="xtick_1">
     <g id="line2d_1">
      <defs>
       <path d="M 0 0 
L 0 -3.5 
" id="ma01806c46c" style="stroke:#000000;stroke-width:0.8;"/>
      </defs>
      <g>
       <use style="stroke:#000000;stroke-width:0.8;" x="81.335938" xlink:href="#ma01806c46c" y="387.532162"/>
      </g>
     </g>
     <g id="text_1">
      <!-- 0 -->
      <defs>
       <path d="M 31.78125 66.40625 
Q 24.171875 66.40625 20.328125 58.90625 
Q 16.5 51.421875 16.5 36.375 
Q 16.5 21.390625 20.328125 13.890625 
Q 24.171875 6.390625 31.78125 6.390625 
Q 39.453125 6.390625 43.28125 13.890625 
Q 47.125 21.390625 47.125 36.375 
Q 47.125 51.421875 43.28125 58.90625 
Q 39.453125 66.40625 31.78125 66.40625 
z
M 31.78125 74.21875 
Q 44.046875 74.21875 50.515625 64.515625 
Q 56.984375 54.828125 56.984375 36.375 
Q 56.984375 17.96875 50.515625 8.265625 
Q 44.046875 -1.421875 31.78125 -1.421875 
Q 19.53125 -1.421875 13.0625 8.265625 
Q 6.59375 17.96875 6.59375 36.375 
Q 6.59375 54.828125 13.0625 64.515625 
Q 19.53125 74.21875 31.78125 74.21875 
z
" id="DejaVuSans-48"/>
      </defs>
      <g transform="translate(77.836562 399.390444)scale(0.11 -0.11)">
       <use xlink:href="#DejaVuSans-48"/>
      </g>
     </g>
    </g>
    <g id="xtick_2">
     <g id="line2d_2">
      <g>
       <use style="stroke:#000000;stroke-width:0.8;" x="138.619186" xlink:href="#ma01806c46c" y="387.532162"/>
      </g>
     </g>
     <g id="text_2">
      <!-- 25000 -->
      <defs>
       <path d="M 19.1875 8.296875 
L 53.609375 8.296875 
L 53.609375 0 
L 7.328125 0 
L 7.328125 8.296875 
Q 12.9375 14.109375 22.625 23.890625 
Q 32.328125 33.6875 34.8125 36.53125 
Q 39.546875 41.84375 41.421875 45.53125 
Q 43.3125 49.21875 43.3125 52.78125 
Q 43.3125 58.59375 39.234375 62.25 
Q 35.15625 65.921875 28.609375 65.921875 
Q 23.96875 65.921875 18.8125 64.3125 
Q 13.671875 62.703125 7.8125 59.421875 
L 7.8125 69.390625 
Q 13.765625 71.78125 18.9375 73 
Q 24.125 74.21875 28.421875 74.21875 
Q 39.75 74.21875 46.484375 68.546875 
Q 53.21875 62.890625 53.21875 53.421875 
Q 53.21875 48.921875 51.53125 44.890625 
Q 49.859375 40.875 45.40625 35.40625 
Q 44.1875 33.984375 37.640625 27.21875 
Q 31.109375 20.453125 19.1875 8.296875 
z
" id="DejaVuSans-50"/>
       <path d="M 10.796875 72.90625 
L 49.515625 72.90625 
L 49.515625 64.59375 
L 19.828125 64.59375 
L 19.828125 46.734375 
Q 21.96875 47.46875 24.109375 47.828125 
Q 26.265625 48.1875 28.421875 48.1875 
Q 40.625 48.1875 47.75 41.5 
Q 54.890625 34.8125 54.890625 23.390625 
Q 54.890625 11.625 47.5625 5.09375 
Q 40.234375 -1.421875 26.90625 -1.421875 
Q 22.3125 -1.421875 17.546875 -0.640625 
Q 12.796875 0.140625 7.71875 1.703125 
L 7.71875 11.625 
Q 12.109375 9.234375 16.796875 8.0625 
Q 21.484375 6.890625 26.703125 6.890625 
Q 35.15625 6.890625 40.078125 11.328125 
Q 45.015625 15.765625 45.015625 23.390625 
Q 45.015625 31 40.078125 35.4375 
Q 35.15625 39.890625 26.703125 39.890625 
Q 22.75 39.890625 18.8125 39.015625 
Q 14.890625 38.140625 10.796875 36.28125 
z
" id="DejaVuSans-53"/>
      </defs>
      <g transform="translate(121.122311 399.390444)scale(0.11 -0.11)">
       <use xlink:href="#DejaVuSans-50"/>
       <use x="63.623047" xlink:href="#DejaVuSans-53"/>
       <use x="127.246094" xlink:href="#DejaVuSans-48"/>
       <use x="190.869141" xlink:href="#DejaVuSans-48"/>
       <use x="254.492188" xlink:href="#DejaVuSans-48"/>
      </g>
     </g>
    </g>
    <g id="xtick_3">
     <g id="line2d_3">
      <g>
       <use style="stroke:#000000;stroke-width:0.8;" x="195.902434" xlink:href="#ma01806c46c" y="387.532162"/>
      </g>
     </g>
     <g id="text_3">
      <!-- 50000 -->
      <g transform="translate(178.405559 399.390444)scale(0.11 -0.11)">
       <use xlink:href="#DejaVuSans-53"/>
       <use x="63.623047" xlink:href="#DejaVuSans-48"/>
       <use x="127.246094" xlink:href="#DejaVuSans-48"/>
       <use x="190.869141" xlink:href="#DejaVuSans-48"/>
       <use x="254.492188" xlink:href="#DejaVuSans-48"/>
      </g>
     </g>
    </g>
    <g id="xtick_4">
     <g id="line2d_4">
      <g>
       <use style="stroke:#000000;stroke-width:0.8;" x="253.185682" xlink:href="#ma01806c46c" y="387.532162"/>
      </g>
     </g>
     <g id="text_4">
      <!-- 75000 -->
      <defs>
       <path d="M 8.203125 72.90625 
L 55.078125 72.90625 
L 55.078125 68.703125 
L 28.609375 0 
L 18.3125 0 
L 43.21875 64.59375 
L 8.203125 64.59375 
z
" id="DejaVuSans-55"/>
      </defs>
      <g transform="translate(235.688807 399.390444)scale(0.11 -0.11)">
       <use xlink:href="#DejaVuSans-55"/>
       <use x="63.623047" xlink:href="#DejaVuSans-53"/>
       <use x="127.246094" xlink:href="#DejaVuSans-48"/>
       <use x="190.869141" xlink:href="#DejaVuSans-48"/>
       <use x="254.492188" xlink:href="#DejaVuSans-48"/>
      </g>
     </g>
    </g>
    <g id="xtick_5">
     <g id="line2d_5">
      <g>
       <use style="stroke:#000000;stroke-width:0.8;" x="310.46893" xlink:href="#ma01806c46c" y="387.532162"/>
      </g>
     </g>
     <g id="text_5">
      <!-- 100000 -->
      <defs>
       <path d="M 12.40625 8.296875 
L 28.515625 8.296875 
L 28.515625 63.921875 
L 10.984375 60.40625 
L 10.984375 69.390625 
L 28.421875 72.90625 
L 38.28125 72.90625 
L 38.28125 8.296875 
L 54.390625 8.296875 
L 54.390625 0 
L 12.40625 0 
z
" id="DejaVuSans-49"/>
      </defs>
      <g transform="translate(289.47268 399.390444)scale(0.11 -0.11)">
       <use xlink:href="#DejaVuSans-49"/>
       <use x="63.623047" xlink:href="#DejaVuSans-48"/>
       <use x="127.246094" xlink:href="#DejaVuSans-48"/>
       <use x="190.869141" xlink:href="#DejaVuSans-48"/>
       <use x="254.492188" xlink:href="#DejaVuSans-48"/>
       <use x="318.115234" xlink:href="#DejaVuSans-48"/>
      </g>
     </g>
    </g>
    <g id="xtick_6">
     <g id="line2d_6">
      <g>
       <use style="stroke:#000000;stroke-width:0.8;" x="367.752178" xlink:href="#ma01806c46c" y="387.532162"/>
      </g>
     </g>
     <g id="text_6">
      <!-- 125000 -->
      <g transform="translate(346.755928 399.390444)scale(0.11 -0.11)">
       <use xlink:href="#DejaVuSans-49"/>
       <use x="63.623047" xlink:href="#DejaVuSans-50"/>
       <use x="127.246094" xlink:href="#DejaVuSans-53"/>
       <use x="190.869141" xlink:href="#DejaVuSans-48"/>
       <use x="254.492188" xlink:href="#DejaVuSans-48"/>
       <use x="318.115234" xlink:href="#DejaVuSans-48"/>
      </g>
     </g>
    </g>
    <g id="xtick_7">
     <g id="line2d_7">
      <g>
       <use style="stroke:#000000;stroke-width:0.8;" x="425.035426" xlink:href="#ma01806c46c" y="387.532162"/>
      </g>
     </g>
     <g id="text_7">
      <!-- 150000 -->
      <g transform="translate(404.039176 399.390444)scale(0.11 -0.11)">
       <use xlink:href="#DejaVuSans-49"/>
       <use x="63.623047" xlink:href="#DejaVuSans-53"/>
       <use x="127.246094" xlink:href="#DejaVuSans-48"/>
       <use x="190.869141" xlink:href="#DejaVuSans-48"/>
       <use x="254.492188" xlink:href="#DejaVuSans-48"/>
       <use x="318.115234" xlink:href="#DejaVuSans-48"/>
      </g>
     </g>
    </g>
    <g id="xtick_8">
     <g id="line2d_8">
      <g>
       <use style="stroke:#000000;stroke-width:0.8;" x="482.318674" xlink:href="#ma01806c46c" y="387.532162"/>
      </g>
     </g>
     <g id="text_8">
      <!-- 175000 -->
      <g transform="translate(461.322424 399.390444)scale(0.11 -0.11)">
       <use xlink:href="#DejaVuSans-49"/>
       <use x="63.623047" xlink:href="#DejaVuSans-55"/>
       <use x="127.246094" xlink:href="#DejaVuSans-53"/>
       <use x="190.869141" xlink:href="#DejaVuSans-48"/>
       <use x="254.492188" xlink:href="#DejaVuSans-48"/>
       <use x="318.115234" xlink:href="#DejaVuSans-48"/>
      </g>
     </g>
    </g>
    <g id="xtick_9">
     <g id="line2d_9">
      <g>
       <use style="stroke:#000000;stroke-width:0.8;" x="539.601922" xlink:href="#ma01806c46c" y="387.532162"/>
      </g>
     </g>
     <g id="text_9">
      <!-- 200000 -->
      <g transform="translate(518.605672 399.390444)scale(0.11 -0.11)">
       <use xlink:href="#DejaVuSans-50"/>
       <use x="63.623047" xlink:href="#DejaVuSans-48"/>
       <use x="127.246094" xlink:href="#DejaVuSans-48"/>
       <use x="190.869141" xlink:href="#DejaVuSans-48"/>
       <use x="254.492188" xlink:href="#DejaVuSans-48"/>
       <use x="318.115234" xlink:href="#DejaVuSans-48"/>
      </g>
     </g>
    </g>
    <g id="text_10">
     <!-- Recovered -->
     <defs>
      <path d="M 44.390625 34.1875 
Q 47.5625 33.109375 50.5625 29.59375 
Q 53.5625 26.078125 56.59375 19.921875 
L 66.609375 0 
L 56 0 
L 46.6875 18.703125 
Q 43.0625 26.03125 39.671875 28.421875 
Q 36.28125 30.8125 30.421875 30.8125 
L 19.671875 30.8125 
L 19.671875 0 
L 9.8125 0 
L 9.8125 72.90625 
L 32.078125 72.90625 
Q 44.578125 72.90625 50.734375 67.671875 
Q 56.890625 62.453125 56.890625 51.90625 
Q 56.890625 45.015625 53.6875 40.46875 
Q 50.484375 35.9375 44.390625 34.1875 
z
M 19.671875 64.796875 
L 19.671875 38.921875 
L 32.078125 38.921875 
Q 39.203125 38.921875 42.84375 42.21875 
Q 46.484375 45.515625 46.484375 51.90625 
Q 46.484375 58.296875 42.84375 61.546875 
Q 39.203125 64.796875 32.078125 64.796875 
z
" id="DejaVuSans-82"/>
      <path d="M 56.203125 29.59375 
L 56.203125 25.203125 
L 14.890625 25.203125 
Q 15.484375 15.921875 20.484375 11.0625 
Q 25.484375 6.203125 34.421875 6.203125 
Q 39.59375 6.203125 44.453125 7.46875 
Q 49.3125 8.734375 54.109375 11.28125 
L 54.109375 2.78125 
Q 49.265625 0.734375 44.1875 -0.34375 
Q 39.109375 -1.421875 33.890625 -1.421875 
Q 20.796875 -1.421875 13.15625 6.1875 
Q 5.515625 13.8125 5.515625 26.8125 
Q 5.515625 40.234375 12.765625 48.109375 
Q 20.015625 56 32.328125 56 
Q 43.359375 56 49.78125 48.890625 
Q 56.203125 41.796875 56.203125 29.59375 
z
M 47.21875 32.234375 
Q 47.125 39.59375 43.09375 43.984375 
Q 39.0625 48.390625 32.421875 48.390625 
Q 24.90625 48.390625 20.390625 44.140625 
Q 15.875 39.890625 15.1875 32.171875 
z
" id="DejaVuSans-101"/>
      <path d="M 48.78125 52.59375 
L 48.78125 44.1875 
Q 44.96875 46.296875 41.140625 47.34375 
Q 37.3125 48.390625 33.40625 48.390625 
Q 24.65625 48.390625 19.8125 42.84375 
Q 14.984375 37.3125 14.984375 27.296875 
Q 14.984375 17.28125 19.8125 11.734375 
Q 24.65625 6.203125 33.40625 6.203125 
Q 37.3125 6.203125 41.140625 7.25 
Q 44.96875 8.296875 48.78125 10.40625 
L 48.78125 2.09375 
Q 45.015625 0.34375 40.984375 -0.53125 
Q 36.96875 -1.421875 32.421875 -1.421875 
Q 20.0625 -1.421875 12.78125 6.34375 
Q 5.515625 14.109375 5.515625 27.296875 
Q 5.515625 40.671875 12.859375 48.328125 
Q 20.21875 56 33.015625 56 
Q 37.15625 56 41.109375 55.140625 
Q 45.0625 54.296875 48.78125 52.59375 
z
" id="DejaVuSans-99"/>
      <path d="M 30.609375 48.390625 
Q 23.390625 48.390625 19.1875 42.75 
Q 14.984375 37.109375 14.984375 27.296875 
Q 14.984375 17.484375 19.15625 11.84375 
Q 23.34375 6.203125 30.609375 6.203125 
Q 37.796875 6.203125 41.984375 11.859375 
Q 46.1875 17.53125 46.1875 27.296875 
Q 46.1875 37.015625 41.984375 42.703125 
Q 37.796875 48.390625 30.609375 48.390625 
z
M 30.609375 56 
Q 42.328125 56 49.015625 48.375 
Q 55.71875 40.765625 55.71875 27.296875 
Q 55.71875 13.875 49.015625 6.21875 
Q 42.328125 -1.421875 30.609375 -1.421875 
Q 18.84375 -1.421875 12.171875 6.21875 
Q 5.515625 13.875 5.515625 27.296875 
Q 5.515625 40.765625 12.171875 48.375 
Q 18.84375 56 30.609375 56 
z
" id="DejaVuSans-111"/>
      <path d="M 2.984375 54.6875 
L 12.5 54.6875 
L 29.59375 8.796875 
L 46.6875 54.6875 
L 56.203125 54.6875 
L 35.6875 0 
L 23.484375 0 
z
" id="DejaVuSans-118"/>
      <path d="M 41.109375 46.296875 
Q 39.59375 47.171875 37.8125 47.578125 
Q 36.03125 48 33.890625 48 
Q 26.265625 48 22.1875 43.046875 
Q 18.109375 38.09375 18.109375 28.8125 
L 18.109375 0 
L 9.078125 0 
L 9.078125 54.6875 
L 18.109375 54.6875 
L 18.109375 46.1875 
Q 20.953125 51.171875 25.484375 53.578125 
Q 30.03125 56 36.53125 56 
Q 37.453125 56 38.578125 55.875 
Q 39.703125 55.765625 41.0625 55.515625 
z
" id="DejaVuSans-114"/>
      <path d="M 45.40625 46.390625 
L 45.40625 75.984375 
L 54.390625 75.984375 
L 54.390625 0 
L 45.40625 0 
L 45.40625 8.203125 
Q 42.578125 3.328125 38.25 0.953125 
Q 33.9375 -1.421875 27.875 -1.421875 
Q 17.96875 -1.421875 11.734375 6.484375 
Q 5.515625 14.40625 5.515625 27.296875 
Q 5.515625 40.1875 11.734375 48.09375 
Q 17.96875 56 27.875 56 
Q 33.9375 56 38.25 53.625 
Q 42.578125 51.265625 45.40625 46.390625 
z
M 14.796875 27.296875 
Q 14.796875 17.390625 18.875 11.75 
Q 22.953125 6.109375 30.078125 6.109375 
Q 37.203125 6.109375 41.296875 11.75 
Q 45.40625 17.390625 45.40625 27.296875 
Q 45.40625 37.203125 41.296875 42.84375 
Q 37.203125 48.484375 30.078125 48.484375 
Q 22.953125 48.484375 18.875 42.84375 
Q 14.796875 37.203125 14.796875 27.296875 
z
" id="DejaVuSans-100"/>
     </defs>
     <g transform="translate(285.633469 414.036381)scale(0.11 -0.11)">
      <use xlink:href="#DejaVuSans-82"/>
      <use x="64.982422" xlink:href="#DejaVuSans-101"/>
      <use x="126.505859" xlink:href="#DejaVuSans-99"/>
      <use x="181.486328" xlink:href="#DejaVuSans-111"/>
      <use x="242.667969" xlink:href="#DejaVuSans-118"/>
      <use x="301.847656" xlink:href="#DejaVuSans-101"/>
      <use x="363.371094" xlink:href="#DejaVuSans-114"/>
      <use x="402.234375" xlink:href="#DejaVuSans-101"/>
      <use x="463.757812" xlink:href="#DejaVuSans-100"/>
     </g>
    </g>
   </g>
   <g id="matplotlib.axis_2">
    <g id="ytick_1">
     <g id="line2d_10">
      <defs>
       <path d="M 0 0 
L 3.5 0 
" id="m88c2033221" style="stroke:#000000;stroke-width:0.8;"/>
      </defs>
      <g>
       <use style="stroke:#000000;stroke-width:0.8;" x="81.335938" xlink:href="#m88c2033221" y="343.748002"/>
      </g>
     </g>
     <g id="text_11">
      <!-- 60200000 -->
      <defs>
       <path d="M 33.015625 40.375 
Q 26.375 40.375 22.484375 35.828125 
Q 18.609375 31.296875 18.609375 23.390625 
Q 18.609375 15.53125 22.484375 10.953125 
Q 26.375 6.390625 33.015625 6.390625 
Q 39.65625 6.390625 43.53125 10.953125 
Q 47.40625 15.53125 47.40625 23.390625 
Q 47.40625 31.296875 43.53125 35.828125 
Q 39.65625 40.375 33.015625 40.375 
z
M 52.59375 71.296875 
L 52.59375 62.3125 
Q 48.875 64.0625 45.09375 64.984375 
Q 41.3125 65.921875 37.59375 65.921875 
Q 27.828125 65.921875 22.671875 59.328125 
Q 17.53125 52.734375 16.796875 39.40625 
Q 19.671875 43.65625 24.015625 45.921875 
Q 28.375 48.1875 33.59375 48.1875 
Q 44.578125 48.1875 50.953125 41.515625 
Q 57.328125 34.859375 57.328125 23.390625 
Q 57.328125 12.15625 50.6875 5.359375 
Q 44.046875 -1.421875 33.015625 -1.421875 
Q 20.359375 -1.421875 13.671875 8.265625 
Q 6.984375 17.96875 6.984375 36.375 
Q 6.984375 53.65625 15.1875 63.9375 
Q 23.390625 74.21875 37.203125 74.21875 
Q 40.921875 74.21875 44.703125 73.484375 
Q 48.484375 72.75 52.59375 71.296875 
z
" id="DejaVuSans-54"/>
      </defs>
      <g transform="translate(21.845937 347.927142)scale(0.11 -0.11)">
       <use xlink:href="#DejaVuSans-54"/>
       <use x="63.623047" xlink:href="#DejaVuSans-48"/>
       <use x="127.246094" xlink:href="#DejaVuSans-50"/>
       <use x="190.869141" xlink:href="#DejaVuSans-48"/>
       <use x="254.492188" xlink:href="#DejaVuSans-48"/>
       <use x="318.115234" xlink:href="#DejaVuSans-48"/>
       <use x="381.738281" xlink:href="#DejaVuSans-48"/>
       <use x="445.361328" xlink:href="#DejaVuSans-48"/>
      </g>
     </g>
    </g>
    <g id="ytick_2">
     <g id="line2d_11">
      <g>
       <use style="stroke:#000000;stroke-width:0.8;" x="81.335938" xlink:href="#m88c2033221" y="270.918521"/>
      </g>
     </g>
     <g id="text_12">
      <!-- 60250000 -->
      <g transform="translate(21.845937 275.097661)scale(0.11 -0.11)">
       <use xlink:href="#DejaVuSans-54"/>
       <use x="63.623047" xlink:href="#DejaVuSans-48"/>
       <use x="127.246094" xlink:href="#DejaVuSans-50"/>
       <use x="190.869141" xlink:href="#DejaVuSans-53"/>
       <use x="254.492188" xlink:href="#DejaVuSans-48"/>
       <use x="318.115234" xlink:href="#DejaVuSans-48"/>
       <use x="381.738281" xlink:href="#DejaVuSans-48"/>
       <use x="445.361328" xlink:href="#DejaVuSans-48"/>
      </g>
     </g>
    </g>
    <g id="ytick_3">
     <g id="line2d_12">
      <g>
       <use style="stroke:#000000;stroke-width:0.8;" x="81.335938" xlink:href="#m88c2033221" y="198.149454"/>
      </g>
     </g>
     <g id="text_13">
      <!-- 60300000 -->
      <defs>
       <path d="M 40.578125 39.3125 
Q 47.65625 37.796875 51.625 33 
Q 55.609375 28.21875 55.609375 21.1875 
Q 55.609375 10.40625 48.1875 4.484375 
Q 40.765625 -1.421875 27.09375 -1.421875 
Q 22.515625 -1.421875 17.65625 -0.515625 
Q 12.796875 0.390625 7.625 2.203125 
L 7.625 11.71875 
Q 11.71875 9.328125 16.59375 8.109375 
Q 21.484375 6.890625 26.8125 6.890625 
Q 36.078125 6.890625 40.9375 10.546875 
Q 45.796875 14.203125 45.796875 21.1875 
Q 45.796875 27.640625 41.28125 31.265625 
Q 36.765625 34.90625 28.71875 34.90625 
L 20.21875 34.90625 
L 20.21875 43.015625 
L 29.109375 43.015625 
Q 36.375 43.015625 40.234375 45.921875 
Q 44.09375 48.828125 44.09375 54.296875 
Q 44.09375 59.90625 40.109375 62.90625 
Q 36.140625 65.921875 28.71875 65.921875 
Q 24.65625 65.921875 20.015625 65.03125 
Q 15.375 64.15625 9.8125 62.3125 
L 9.8125 71.09375 
Q 15.4375 72.65625 20.34375 73.4375 
Q 25.25 74.21875 29.59375 74.21875 
Q 40.828125 74.21875 47.359375 69.109375 
Q 53.90625 64.015625 53.90625 55.328125 
Q 53.90625 49.265625 50.4375 45.09375 
Q 46.96875 40.921875 40.578125 39.3125 
z
" id="DejaVuSans-51"/>
      </defs>
      <g transform="translate(21.845937 202.328594)scale(0.11 -0.11)">
       <use xlink:href="#DejaVuSans-54"/>
       <use x="63.623047" xlink:href="#DejaVuSans-48"/>
       <use x="127.246094" xlink:href="#DejaVuSans-51"/>
       <use x="190.869141" xlink:href="#DejaVuSans-48"/>
       <use x="254.492188" xlink:href="#DejaVuSans-48"/>
       <use x="318.115234" xlink:href="#DejaVuSans-48"/>
       <use x="381.738281" xlink:href="#DejaVuSans-48"/>
       <use x="445.361328" xlink:href="#DejaVuSans-48"/>
      </g>
     </g>
    </g>
    <g id="ytick_4">
     <g id="line2d_13">
      <g>
       <use style="stroke:#000000;stroke-width:0.8;" x="81.335938" xlink:href="#m88c2033221" y="125.440701"/>
      </g>
     </g>
     <g id="text_14">
      <!-- 60350000 -->
      <g transform="translate(21.845937 129.619842)scale(0.11 -0.11)">
       <use xlink:href="#DejaVuSans-54"/>
       <use x="63.623047" xlink:href="#DejaVuSans-48"/>
       <use x="127.246094" xlink:href="#DejaVuSans-51"/>
       <use x="190.869141" xlink:href="#DejaVuSans-53"/>
       <use x="254.492188" xlink:href="#DejaVuSans-48"/>
       <use x="318.115234" xlink:href="#DejaVuSans-48"/>
       <use x="381.738281" xlink:href="#DejaVuSans-48"/>
       <use x="445.361328" xlink:href="#DejaVuSans-48"/>
      </g>
     </g>
    </g>
    <g id="ytick_5">
     <g id="line2d_14">
      <g>
       <use style="stroke:#000000;stroke-width:0.8;" x="81.335938" xlink:href="#m88c2033221" y="52.792162"/>
      </g>
     </g>
     <g id="text_15">
      <!-- 60400000 -->
      <defs>
       <path d="M 37.796875 64.3125 
L 12.890625 25.390625 
L 37.796875 25.390625 
z
M 35.203125 72.90625 
L 47.609375 72.90625 
L 47.609375 25.390625 
L 58.015625 25.390625 
L 58.015625 17.1875 
L 47.609375 17.1875 
L 47.609375 0 
L 37.796875 0 
L 37.796875 17.1875 
L 4.890625 17.1875 
L 4.890625 26.703125 
z
" id="DejaVuSans-52"/>
      </defs>
      <g transform="translate(21.845937 56.971303)scale(0.11 -0.11)">
       <use xlink:href="#DejaVuSans-54"/>
       <use x="63.623047" xlink:href="#DejaVuSans-48"/>
       <use x="127.246094" xlink:href="#DejaVuSans-52"/>
       <use x="190.869141" xlink:href="#DejaVuSans-48"/>
       <use x="254.492188" xlink:href="#DejaVuSans-48"/>
       <use x="318.115234" xlink:href="#DejaVuSans-48"/>
       <use x="381.738281" xlink:href="#DejaVuSans-48"/>
       <use x="445.361328" xlink:href="#DejaVuSans-48"/>
      </g>
     </g>
    </g>
    <g id="text_16">
     <!-- Susceptible -->
     <defs>
      <path d="M 53.515625 70.515625 
L 53.515625 60.890625 
Q 47.90625 63.578125 42.921875 64.890625 
Q 37.9375 66.21875 33.296875 66.21875 
Q 25.25 66.21875 20.875 63.09375 
Q 16.5 59.96875 16.5 54.203125 
Q 16.5 49.359375 19.40625 46.890625 
Q 22.3125 44.4375 30.421875 42.921875 
L 36.375 41.703125 
Q 47.40625 39.59375 52.65625 34.296875 
Q 57.90625 29 57.90625 20.125 
Q 57.90625 9.515625 50.796875 4.046875 
Q 43.703125 -1.421875 29.984375 -1.421875 
Q 24.8125 -1.421875 18.96875 -0.25 
Q 13.140625 0.921875 6.890625 3.21875 
L 6.890625 13.375 
Q 12.890625 10.015625 18.65625 8.296875 
Q 24.421875 6.59375 29.984375 6.59375 
Q 38.421875 6.59375 43.015625 9.90625 
Q 47.609375 13.234375 47.609375 19.390625 
Q 47.609375 24.75 44.3125 27.78125 
Q 41.015625 30.8125 33.5 32.328125 
L 27.484375 33.5 
Q 16.453125 35.6875 11.515625 40.375 
Q 6.59375 45.0625 6.59375 53.421875 
Q 6.59375 63.09375 13.40625 68.65625 
Q 20.21875 74.21875 32.171875 74.21875 
Q 37.3125 74.21875 42.625 73.28125 
Q 47.953125 72.359375 53.515625 70.515625 
z
" id="DejaVuSans-83"/>
      <path d="M 8.5 21.578125 
L 8.5 54.6875 
L 17.484375 54.6875 
L 17.484375 21.921875 
Q 17.484375 14.15625 20.5 10.265625 
Q 23.53125 6.390625 29.59375 6.390625 
Q 36.859375 6.390625 41.078125 11.03125 
Q 45.3125 15.671875 45.3125 23.6875 
L 45.3125 54.6875 
L 54.296875 54.6875 
L 54.296875 0 
L 45.3125 0 
L 45.3125 8.40625 
Q 42.046875 3.421875 37.71875 1 
Q 33.40625 -1.421875 27.6875 -1.421875 
Q 18.265625 -1.421875 13.375 4.4375 
Q 8.5 10.296875 8.5 21.578125 
z
M 31.109375 56 
z
" id="DejaVuSans-117"/>
      <path d="M 44.28125 53.078125 
L 44.28125 44.578125 
Q 40.484375 46.53125 36.375 47.5 
Q 32.28125 48.484375 27.875 48.484375 
Q 21.1875 48.484375 17.84375 46.4375 
Q 14.5 44.390625 14.5 40.28125 
Q 14.5 37.15625 16.890625 35.375 
Q 19.28125 33.59375 26.515625 31.984375 
L 29.59375 31.296875 
Q 39.15625 29.25 43.1875 25.515625 
Q 47.21875 21.78125 47.21875 15.09375 
Q 47.21875 7.46875 41.1875 3.015625 
Q 35.15625 -1.421875 24.609375 -1.421875 
Q 20.21875 -1.421875 15.453125 -0.5625 
Q 10.6875 0.296875 5.421875 2 
L 5.421875 11.28125 
Q 10.40625 8.6875 15.234375 7.390625 
Q 20.0625 6.109375 24.8125 6.109375 
Q 31.15625 6.109375 34.5625 8.28125 
Q 37.984375 10.453125 37.984375 14.40625 
Q 37.984375 18.0625 35.515625 20.015625 
Q 33.0625 21.96875 24.703125 23.78125 
L 21.578125 24.515625 
Q 13.234375 26.265625 9.515625 29.90625 
Q 5.8125 33.546875 5.8125 39.890625 
Q 5.8125 47.609375 11.28125 51.796875 
Q 16.75 56 26.8125 56 
Q 31.78125 56 36.171875 55.265625 
Q 40.578125 54.546875 44.28125 53.078125 
z
" id="DejaVuSans-115"/>
      <path d="M 18.109375 8.203125 
L 18.109375 -20.796875 
L 9.078125 -20.796875 
L 9.078125 54.6875 
L 18.109375 54.6875 
L 18.109375 46.390625 
Q 20.953125 51.265625 25.265625 53.625 
Q 29.59375 56 35.59375 56 
Q 45.5625 56 51.78125 48.09375 
Q 58.015625 40.1875 58.015625 27.296875 
Q 58.015625 14.40625 51.78125 6.484375 
Q 45.5625 -1.421875 35.59375 -1.421875 
Q 29.59375 -1.421875 25.265625 0.953125 
Q 20.953125 3.328125 18.109375 8.203125 
z
M 48.6875 27.296875 
Q 48.6875 37.203125 44.609375 42.84375 
Q 40.53125 48.484375 33.40625 48.484375 
Q 26.265625 48.484375 22.1875 42.84375 
Q 18.109375 37.203125 18.109375 27.296875 
Q 18.109375 17.390625 22.1875 11.75 
Q 26.265625 6.109375 33.40625 6.109375 
Q 40.53125 6.109375 44.609375 11.75 
Q 48.6875 17.390625 48.6875 27.296875 
z
" id="DejaVuSans-112"/>
      <path d="M 18.3125 70.21875 
L 18.3125 54.6875 
L 36.8125 54.6875 
L 36.8125 47.703125 
L 18.3125 47.703125 
L 18.3125 18.015625 
Q 18.3125 11.328125 20.140625 9.421875 
Q 21.96875 7.515625 27.59375 7.515625 
L 36.8125 7.515625 
L 36.8125 0 
L 27.59375 0 
Q 17.1875 0 13.234375 3.875 
Q 9.28125 7.765625 9.28125 18.015625 
L 9.28125 47.703125 
L 2.6875 47.703125 
L 2.6875 54.6875 
L 9.28125 54.6875 
L 9.28125 70.21875 
z
" id="DejaVuSans-116"/>
      <path d="M 9.421875 54.6875 
L 18.40625 54.6875 
L 18.40625 0 
L 9.421875 0 
z
M 9.421875 75.984375 
L 18.40625 75.984375 
L 18.40625 64.59375 
L 9.421875 64.59375 
z
" id="DejaVuSans-105"/>
      <path d="M 48.6875 27.296875 
Q 48.6875 37.203125 44.609375 42.84375 
Q 40.53125 48.484375 33.40625 48.484375 
Q 26.265625 48.484375 22.1875 42.84375 
Q 18.109375 37.203125 18.109375 27.296875 
Q 18.109375 17.390625 22.1875 11.75 
Q 26.265625 6.109375 33.40625 6.109375 
Q 40.53125 6.109375 44.609375 11.75 
Q 48.6875 17.390625 48.6875 27.296875 
z
M 18.109375 46.390625 
Q 20.953125 51.265625 25.265625 53.625 
Q 29.59375 56 35.59375 56 
Q 45.5625 56 51.78125 48.09375 
Q 58.015625 40.1875 58.015625 27.296875 
Q 58.015625 14.40625 51.78125 6.484375 
Q 45.5625 -1.421875 35.59375 -1.421875 
Q 29.59375 -1.421875 25.265625 0.953125 
Q 20.953125 3.328125 18.109375 8.203125 
L 18.109375 0 
L 9.078125 0 
L 9.078125 75.984375 
L 18.109375 75.984375 
z
" id="DejaVuSans-98"/>
      <path d="M 9.421875 75.984375 
L 18.40625 75.984375 
L 18.40625 0 
L 9.421875 0 
z
" id="DejaVuSans-108"/>
     </defs>
     <g transform="translate(15.558281 251.992553)rotate(-90)scale(0.11 -0.11)">
      <use xlink:href="#DejaVuSans-83"/>
      <use x="63.476562" xlink:href="#DejaVuSans-117"/>
      <use x="126.855469" xlink:href="#DejaVuSans-115"/>
      <use x="178.955078" xlink:href="#DejaVuSans-99"/>
      <use x="233.935547" xlink:href="#DejaVuSans-101"/>
      <use x="295.458984" xlink:href="#DejaVuSans-112"/>
      <use x="358.935547" xlink:href="#DejaVuSans-116"/>
      <use x="398.144531" xlink:href="#DejaVuSans-105"/>
      <use x="425.927734" xlink:href="#DejaVuSans-98"/>
      <use x="489.404297" xlink:href="#DejaVuSans-108"/>
      <use x="517.1875" xlink:href="#DejaVuSans-101"/>
     </g>
    </g>
   </g>
   <g id="line2d_15">
    <path clip-path="url(#pcb917bd313)" d="M 97.430239 107.095626 
L 98.365101 114.055606 
L 100.41355 121.68475 
L 102.787368 129.257866 
L 105.076407 138.202543 
L 106.426 146.86607 
L 109.711767 155.552264 
L 111.191966 163.138483 
L 114.835181 169.02818 
L 117.376266 174.922636 
L 119.937973 181.877818 
L 123.216866 188.667724 
L 126.608034 195.337413 
L 129.444701 202.327675 
L 131.3213 208.60702 
L 133.663039 213.843546 
L 137.226057 218.265519 
L 142.035558 223.847504 
L 146.5701 229.965395 
L 151.11839 235.715496 
L 155.882065 242.547414 
L 159.724626 248.503581 
L 162.529213 253.09325 
L 166.413018 257.419665 
L 168.617277 261.302266 
L 173.364913 266.814194 
L 179.237591 271.89986 
L 184.278517 276.982908 
L 189.154467 281.419714 
L 193.32927 284.704871 
L 199.568562 288.678969 
L 206.311945 293.58677 
L 213.261549 297.440387 
L 219.956815 301.840358 
L 225.964682 305.273392 
L 230.107407 308.658493 
L 233.993502 311.191577 
L 239.302514 314.237493 
L 244.597777 317.276231 
L 255.350989 320.003318 
L 260.630213 322.865977 
L 264.445277 325.634031 
L 268.432191 327.657679 
L 271.23907 329.436605 
L 276.628278 331.002848 
L 294.990996 333.106756 
L 301.936017 335.148062 
L 308.2303 337.081591 
L 317.413951 338.659626 
L 322.351767 339.828236 
L 325.56192 340.912347 
L 331.180261 342.955292 
L 339.204498 344.249278 
L 345.498782 345.694835 
L 356.765251 346.844595 
L 362.734165 348.119694 
L 368.155452 349.103355 
L 373.081811 349.760592 
L 377.836321 350.94538 
L 384.437642 351.9145 
L 389.657292 352.85011 
L 394.606565 353.800305 
L 399.464184 354.775285 
L 403.219674 355.549156 
L 406.661251 355.986374 
L 412.795142 356.564963 
L 418.392861 357.416093 
L 426.419389 358.280348 
L 431.551968 359.032388 
L 437.942487 359.638689 
L 442.23644 360.156088 
L 444.179487 360.415518 
L 448.159528 360.878995 
L 450.097993 361.346847 
L 452.290795 361.604823 
L 456.612244 362.359806 
L 459.584099 362.753333 
L 461.323218 363.040463 
L 463.034841 363.448568 
L 467.759564 363.861048 
L 470.722253 364.155469 
L 473.927824 364.707876 
L 477.930777 364.945456 
L 482.009345 365.449768 
L 485.457796 365.942423 
L 486.924247 366.381151 
L 490.397903 366.687241 
L 492.526549 367.165327 
L 495.021807 367.647789 
L 498.14489 367.432065 
L 499.395956 367.81687 
L 500.404141 368.143371 
L 501.62542 368.465501 
L 504.281071 368.630211 
L 507.777641 369.471255 
L 509.184517 369.902712 
L 511.223801 370.274408 
L 513.4441 370.529494 
L 514.147538 370.783124 
L 514.846394 370.966787 
L 517.256873 371.173773 
L 518.331506 371.439066 
L 519.170133 371.732055 
L 520.050004 372.057114 
L 521.142968 372.399666 
L 521.518746 372.679539 
L 521.823493 372.982736 
L 523.138717 373.182438 
L 525.029064 373.463772 
L 525.803533 373.775717 
L 526.479476 374.178042 
L 526.479476 374.178042 
" style="fill:none;"/>
    <defs>
     <path d="M 0 1.5 
C 0.397805 1.5 0.77937 1.341951 1.06066 1.06066 
C 1.341951 0.77937 1.5 0.397805 1.5 0 
C 1.5 -0.397805 1.341951 -0.77937 1.06066 -1.06066 
C 0.77937 -1.341951 0.397805 -1.5 0 -1.5 
C -0.397805 -1.5 -0.77937 -1.341951 -1.06066 -1.06066 
C -1.341951 -0.77937 -1.5 -0.397805 -1.5 0 
C -1.5 0.397805 -1.341951 0.77937 -1.06066 1.06066 
C -0.77937 1.341951 -0.397805 1.5 0 1.5 
z
" id="me46f365b62"/>
    </defs>
    <g clip-path="url(#pcb917bd313)">
     <use x="97.430239" xlink:href="#me46f365b62" y="107.095626"/>
     <use x="98.365101" xlink:href="#me46f365b62" y="114.055606"/>
     <use x="100.41355" xlink:href="#me46f365b62" y="121.68475"/>
     <use x="102.787368" xlink:href="#me46f365b62" y="129.257866"/>
     <use x="105.076407" xlink:href="#me46f365b62" y="138.202543"/>
     <use x="106.426" xlink:href="#me46f365b62" y="146.86607"/>
     <use x="109.711767" xlink:href="#me46f365b62" y="155.552264"/>
     <use x="111.191966" xlink:href="#me46f365b62" y="163.138483"/>
     <use x="114.835181" xlink:href="#me46f365b62" y="169.02818"/>
     <use x="117.376266" xlink:href="#me46f365b62" y="174.922636"/>
     <use x="119.937973" xlink:href="#me46f365b62" y="181.877818"/>
     <use x="123.216866" xlink:href="#me46f365b62" y="188.667724"/>
     <use x="126.608034" xlink:href="#me46f365b62" y="195.337413"/>
     <use x="129.444701" xlink:href="#me46f365b62" y="202.327675"/>
     <use x="131.3213" xlink:href="#me46f365b62" y="208.60702"/>
     <use x="133.663039" xlink:href="#me46f365b62" y="213.843546"/>
     <use x="137.226057" xlink:href="#me46f365b62" y="218.265519"/>
     <use x="142.035558" xlink:href="#me46f365b62" y="223.847504"/>
     <use x="146.5701" xlink:href="#me46f365b62" y="229.965395"/>
     <use x="151.11839" xlink:href="#me46f365b62" y="235.715496"/>
     <use x="155.882065" xlink:href="#me46f365b62" y="242.547414"/>
     <use x="159.724626" xlink:href="#me46f365b62" y="248.503581"/>
     <use x="162.529213" xlink:href="#me46f365b62" y="253.09325"/>
     <use x="166.413018" xlink:href="#me46f365b62" y="257.419665"/>
     <use x="168.617277" xlink:href="#me46f365b62" y="261.302266"/>
     <use x="173.364913" xlink:href="#me46f365b62" y="266.814194"/>
     <use x="179.237591" xlink:href="#me46f365b62" y="271.89986"/>
     <use x="184.278517" xlink:href="#me46f365b62" y="276.982908"/>
     <use x="189.154467" xlink:href="#me46f365b62" y="281.419714"/>
     <use x="193.32927" xlink:href="#me46f365b62" y="284.704871"/>
     <use x="199.568562" xlink:href="#me46f365b62" y="288.678969"/>
     <use x="206.311945" xlink:href="#me46f365b62" y="293.58677"/>
     <use x="213.261549" xlink:href="#me46f365b62" y="297.440387"/>
     <use x="219.956815" xlink:href="#me46f365b62" y="301.840358"/>
     <use x="225.964682" xlink:href="#me46f365b62" y="305.273392"/>
     <use x="230.107407" xlink:href="#me46f365b62" y="308.658493"/>
     <use x="233.993502" xlink:href="#me46f365b62" y="311.191577"/>
     <use x="239.302514" xlink:href="#me46f365b62" y="314.237493"/>
     <use x="244.597777" xlink:href="#me46f365b62" y="317.276231"/>
     <use x="255.350989" xlink:href="#me46f365b62" y="320.003318"/>
     <use x="260.630213" xlink:href="#me46f365b62" y="322.865977"/>
     <use x="264.445277" xlink:href="#me46f365b62" y="325.634031"/>
     <use x="268.432191" xlink:href="#me46f365b62" y="327.657679"/>
     <use x="271.23907" xlink:href="#me46f365b62" y="329.436605"/>
     <use x="276.628278" xlink:href="#me46f365b62" y="331.002848"/>
     <use x="294.990996" xlink:href="#me46f365b62" y="333.106756"/>
     <use x="301.936017" xlink:href="#me46f365b62" y="335.148062"/>
     <use x="308.2303" xlink:href="#me46f365b62" y="337.081591"/>
     <use x="317.413951" xlink:href="#me46f365b62" y="338.659626"/>
     <use x="322.351767" xlink:href="#me46f365b62" y="339.828236"/>
     <use x="325.56192" xlink:href="#me46f365b62" y="340.912347"/>
     <use x="331.180261" xlink:href="#me46f365b62" y="342.955292"/>
     <use x="339.204498" xlink:href="#me46f365b62" y="344.249278"/>
     <use x="345.498782" xlink:href="#me46f365b62" y="345.694835"/>
     <use x="356.765251" xlink:href="#me46f365b62" y="346.844595"/>
     <use x="362.734165" xlink:href="#me46f365b62" y="348.119694"/>
     <use x="368.155452" xlink:href="#me46f365b62" y="349.103355"/>
     <use x="373.081811" xlink:href="#me46f365b62" y="349.760592"/>
     <use x="377.836321" xlink:href="#me46f365b62" y="350.94538"/>
     <use x="384.437642" xlink:href="#me46f365b62" y="351.9145"/>
     <use x="389.657292" xlink:href="#me46f365b62" y="352.85011"/>
     <use x="394.606565" xlink:href="#me46f365b62" y="353.800305"/>
     <use x="399.464184" xlink:href="#me46f365b62" y="354.775285"/>
     <use x="403.219674" xlink:href="#me46f365b62" y="355.549156"/>
     <use x="406.661251" xlink:href="#me46f365b62" y="355.986374"/>
     <use x="412.795142" xlink:href="#me46f365b62" y="356.564963"/>
     <use x="418.392861" xlink:href="#me46f365b62" y="357.416093"/>
     <use x="426.419389" xlink:href="#me46f365b62" y="358.280348"/>
     <use x="431.551968" xlink:href="#me46f365b62" y="359.032388"/>
     <use x="437.942487" xlink:href="#me46f365b62" y="359.638689"/>
     <use x="442.23644" xlink:href="#me46f365b62" y="360.156088"/>
     <use x="444.179487" xlink:href="#me46f365b62" y="360.415518"/>
     <use x="448.159528" xlink:href="#me46f365b62" y="360.878995"/>
     <use x="450.097993" xlink:href="#me46f365b62" y="361.346847"/>
     <use x="452.290795" xlink:href="#me46f365b62" y="361.604823"/>
     <use x="456.612244" xlink:href="#me46f365b62" y="362.359806"/>
     <use x="459.584099" xlink:href="#me46f365b62" y="362.753333"/>
     <use x="461.323218" xlink:href="#me46f365b62" y="363.040463"/>
     <use x="463.034841" xlink:href="#me46f365b62" y="363.448568"/>
     <use x="467.759564" xlink:href="#me46f365b62" y="363.861048"/>
     <use x="470.722253" xlink:href="#me46f365b62" y="364.155469"/>
     <use x="473.927824" xlink:href="#me46f365b62" y="364.707876"/>
     <use x="477.930777" xlink:href="#me46f365b62" y="364.945456"/>
     <use x="482.009345" xlink:href="#me46f365b62" y="365.449768"/>
     <use x="485.457796" xlink:href="#me46f365b62" y="365.942423"/>
     <use x="486.924247" xlink:href="#me46f365b62" y="366.381151"/>
     <use x="490.397903" xlink:href="#me46f365b62" y="366.687241"/>
     <use x="492.526549" xlink:href="#me46f365b62" y="367.165327"/>
     <use x="495.021807" xlink:href="#me46f365b62" y="367.647789"/>
     <use x="498.14489" xlink:href="#me46f365b62" y="367.432065"/>
     <use x="499.395956" xlink:href="#me46f365b62" y="367.81687"/>
     <use x="500.404141" xlink:href="#me46f365b62" y="368.143371"/>
     <use x="501.62542" xlink:href="#me46f365b62" y="368.465501"/>
     <use x="504.281071" xlink:href="#me46f365b62" y="368.630211"/>
     <use x="507.777641" xlink:href="#me46f365b62" y="369.471255"/>
     <use x="509.184517" xlink:href="#me46f365b62" y="369.902712"/>
     <use x="511.223801" xlink:href="#me46f365b62" y="370.274408"/>
     <use x="513.4441" xlink:href="#me46f365b62" y="370.529494"/>
     <use x="514.147538" xlink:href="#me46f365b62" y="370.783124"/>
     <use x="514.846394" xlink:href="#me46f365b62" y="370.966787"/>
     <use x="517.256873" xlink:href="#me46f365b62" y="371.173773"/>
     <use x="518.331506" xlink:href="#me46f365b62" y="371.439066"/>
     <use x="519.170133" xlink:href="#me46f365b62" y="371.732055"/>
     <use x="520.050004" xlink:href="#me46f365b62" y="372.057114"/>
     <use x="521.142968" xlink:href="#me46f365b62" y="372.399666"/>
     <use x="521.518746" xlink:href="#me46f365b62" y="372.679539"/>
     <use x="521.823493" xlink:href="#me46f365b62" y="372.982736"/>
     <use x="523.138717" xlink:href="#me46f365b62" y="373.182438"/>
     <use x="525.029064" xlink:href="#me46f365b62" y="373.463772"/>
     <use x="525.803533" xlink:href="#me46f365b62" y="373.775717"/>
     <use x="526.479476" xlink:href="#me46f365b62" y="374.178042"/>
     <use x="526.479476" xlink:href="#me46f365b62" y="374.178042"/>
    </g>
   </g>
   <g id="line2d_16">
    <path clip-path="url(#pcb917bd313)" d="M 97.430239 110.257996 
L 98.365101 113.66174 
L 100.41355 121.12079 
L 102.787368 129.763732 
L 105.076407 138.09787 
L 106.426 143.011792 
L 109.711767 154.976453 
L 111.191966 160.365373 
L 114.835181 173.631145 
" style="fill:none;stroke:#1f77b4;stroke-linecap:square;stroke-width:1.5;"/>
   </g>
   <g id="line2d_17">
    <path clip-path="url(#pcb917bd313)" d="M 117.376266 175.127706 
L 119.937973 181.05457 
L 123.216866 188.640086 
L 126.608034 196.485204 
L 129.444701 203.047827 
L 131.3213 207.389234 
" style="fill:none;stroke:#ff7f0e;stroke-linecap:square;stroke-width:1.5;"/>
   </g>
   <g id="line2d_18">
    <path clip-path="url(#pcb917bd313)" d="M 133.663039 213.727143 
L 137.226057 218.192763 
L 142.035558 224.218582 
L 146.5701 229.901362 
L 151.11839 235.600519 
" style="fill:none;stroke:#2ca02c;stroke-linecap:square;stroke-width:1.5;"/>
   </g>
   <g id="line2d_19">
    <path clip-path="url(#pcb917bd313)" d="M 155.882065 242.848706 
L 159.724626 248.384221 
L 162.529213 252.423635 
L 166.413018 258.019441 
L 168.617277 261.194535 
" style="fill:none;stroke:#d62728;stroke-linecap:square;stroke-width:1.5;"/>
   </g>
   <g id="line2d_20">
    <path clip-path="url(#pcb917bd313)" d="M 173.364913 266.805459 
L 179.237591 272.148837 
L 184.278517 276.733918 
L 189.154467 281.169255 
L 193.32927 284.96699 
" style="fill:none;stroke:#9467bd;stroke-linecap:square;stroke-width:1.5;"/>
   </g>
   <g id="line2d_21">
    <path clip-path="url(#pcb917bd313)" d="M 199.568562 288.895955 
L 206.311945 293.184815 
L 213.261549 297.604963 
L 219.956815 301.863662 
" style="fill:none;stroke:#8c564b;stroke-linecap:square;stroke-width:1.5;"/>
   </g>
   <g id="line2d_22">
    <path clip-path="url(#pcb917bd313)" d="M 225.964682 306.79405 
L 230.107407 308.783761 
L 233.993502 310.649703 
L 239.302514 313.198869 
L 244.597777 315.740824 
L 255.350989 320.905082 
L 260.630213 323.439977 
" style="fill:none;stroke:#e377c2;stroke-linecap:square;stroke-width:1.5;"/>
   </g>
   <g id="line2d_23">
    <path clip-path="url(#pcb917bd313)" d="M 264.445277 326.948159 
L 268.432191 327.848537 
L 271.23907 328.482304 
L 276.628278 329.698858 
L 294.990996 333.845467 
L 301.936017 335.413246 
L 308.2303 336.833887 
" style="fill:none;stroke:#7f7f7f;stroke-linecap:square;stroke-width:1.5;"/>
   </g>
   <g id="line2d_24">
    <path clip-path="url(#pcb917bd313)" d="M 317.413951 339.442098 
L 322.351767 340.393604 
L 325.56192 341.011433 
L 331.180261 342.094102 
L 339.204498 343.638712 
L 345.498782 344.851105 
L 356.765251 347.020922 
L 362.734165 348.170698 
L 368.155452 349.215566 
L 373.081811 350.164264 
L 377.836321 351.079453 
" style="fill:none;stroke:#bcbd22;stroke-linecap:square;stroke-width:1.5;"/>
   </g>
   <g id="line2d_25">
    <path clip-path="url(#pcb917bd313)" d="M 384.437642 352.535324 
L 389.657292 353.239223 
L 394.606565 353.906692 
L 399.464184 354.562508 
L 403.219674 355.069676 
L 406.661251 355.533125 
L 412.795142 356.360926 
L 418.392861 357.115865 
L 426.419389 358.198732 
L 431.551968 358.891016 
L 437.942487 359.753828 
L 442.23644 360.332442 
L 444.179487 360.594787 
L 448.159528 361.132597 
L 450.097993 361.393487 
L 452.290795 361.689357 
L 456.612244 362.272356 
" style="fill:none;stroke:#17becf;stroke-linecap:square;stroke-width:1.5;"/>
   </g>
   <g id="line2d_26">
    <path clip-path="url(#pcb917bd313)" d="M 459.584099 362.044986 
L 461.323218 362.332114 
L 463.034841 362.61487 
L 467.759564 363.396097 
L 470.722253 363.885826 
L 473.927824 364.41491 
L 477.930777 365.076635 
L 482.009345 365.751483 
L 485.457796 366.319933 
L 486.924247 366.563347 
L 490.397903 367.137633 
L 492.526549 367.488911 
L 495.021807 367.90141 
L 498.14489 368.4174 
L 499.395956 368.62438 
L 500.404141 368.790548 
L 501.62542 368.991698 
L 504.281071 369.430441 
L 507.777641 370.009119 
L 509.184517 370.240882 
L 511.223801 370.577597 
L 513.4441 370.944923 
L 514.147538 371.061534 
L 514.846394 371.176689 
L 517.256873 371.574628 
L 518.331506 371.752462 
L 519.170133 371.89094 
L 520.050004 372.036707 
L 521.142968 372.217457 
L 521.518746 372.280137 
L 521.823493 372.329698 
L 523.138717 372.546891 
L 525.029064 372.858833 
L 525.803533 372.987109 
L 526.479476 373.09935 
L 526.479476 373.09935 
" style="fill:none;stroke:#1f77b4;stroke-linecap:square;stroke-width:1.5;"/>
   </g>
   <g id="line2d_27">
    <path clip-path="url(#pcb917bd313)" d="M 117.376266 387.532162 
L 117.376266 52.792162 
" style="fill:none;stroke:#000000;stroke-dasharray:1.5,2.475;stroke-dashoffset:0;stroke-width:1.5;"/>
   </g>
   <g id="line2d_28">
    <path clip-path="url(#pcb917bd313)" d="M 133.663039 387.532162 
L 133.663039 52.792162 
" style="fill:none;stroke:#000000;stroke-dasharray:1.5,2.475;stroke-dashoffset:0;stroke-width:1.5;"/>
   </g>
   <g id="line2d_29">
    <path clip-path="url(#pcb917bd313)" d="M 155.882065 387.532162 
L 155.882065 52.792162 
" style="fill:none;stroke:#000000;stroke-dasharray:1.5,2.475;stroke-dashoffset:0;stroke-width:1.5;"/>
   </g>
   <g id="line2d_30">
    <path clip-path="url(#pcb917bd313)" d="M 173.364913 387.532162 
L 173.364913 52.792162 
" style="fill:none;stroke:#000000;stroke-dasharray:1.5,2.475;stroke-dashoffset:0;stroke-width:1.5;"/>
   </g>
   <g id="line2d_31">
    <path clip-path="url(#pcb917bd313)" d="M 199.568562 387.532162 
L 199.568562 52.792162 
" style="fill:none;stroke:#000000;stroke-dasharray:1.5,2.475;stroke-dashoffset:0;stroke-width:1.5;"/>
   </g>
   <g id="line2d_32">
    <path clip-path="url(#pcb917bd313)" d="M 225.964682 387.532162 
L 225.964682 52.792162 
" style="fill:none;stroke:#000000;stroke-dasharray:1.5,2.475;stroke-dashoffset:0;stroke-width:1.5;"/>
   </g>
   <g id="line2d_33">
    <path clip-path="url(#pcb917bd313)" d="M 264.445277 387.532162 
L 264.445277 52.792162 
" style="fill:none;stroke:#000000;stroke-dasharray:1.5,2.475;stroke-dashoffset:0;stroke-width:1.5;"/>
   </g>
   <g id="line2d_34">
    <path clip-path="url(#pcb917bd313)" d="M 317.413951 387.532162 
L 317.413951 52.792162 
" style="fill:none;stroke:#000000;stroke-dasharray:1.5,2.475;stroke-dashoffset:0;stroke-width:1.5;"/>
   </g>
   <g id="line2d_35">
    <path clip-path="url(#pcb917bd313)" d="M 384.437642 387.532162 
L 384.437642 52.792162 
" style="fill:none;stroke:#000000;stroke-dasharray:1.5,2.475;stroke-dashoffset:0;stroke-width:1.5;"/>
   </g>
   <g id="line2d_36">
    <path clip-path="url(#pcb917bd313)" d="M 459.584099 387.532162 
L 459.584099 52.792162 
" style="fill:none;stroke:#000000;stroke-dasharray:1.5,2.475;stroke-dashoffset:0;stroke-width:1.5;"/>
   </g>
   <g id="patch_3">
    <path d="M 81.335938 387.532162 
L 81.335938 52.792162 
" style="fill:none;stroke:#000000;stroke-linecap:square;stroke-linejoin:miter;stroke-width:0.8;"/>
   </g>
   <g id="patch_4">
    <path d="M 547.931938 387.532162 
L 547.931938 52.792162 
" style="fill:none;stroke:#000000;stroke-linecap:square;stroke-linejoin:miter;stroke-width:0.8;"/>
   </g>
   <g id="patch_5">
    <path d="M 81.335938 387.532162 
L 547.931938 387.532162 
" style="fill:none;stroke:#000000;stroke-linecap:square;stroke-linejoin:miter;stroke-width:0.8;"/>
   </g>
   <g id="patch_6">
    <path d="M 81.335938 52.792162 
L 547.931938 52.792162 
" style="fill:none;stroke:#000000;stroke-linecap:square;stroke-linejoin:miter;stroke-width:0.8;"/>
   </g>
   <g id="text_17">
    <!-- Italy: S-R trend changed on -->
    <defs>
     <path d="M 9.8125 72.90625 
L 19.671875 72.90625 
L 19.671875 0 
L 9.8125 0 
z
" id="DejaVuSans-73"/>
     <path d="M 34.28125 27.484375 
Q 23.390625 27.484375 19.1875 25 
Q 14.984375 22.515625 14.984375 16.5 
Q 14.984375 11.71875 18.140625 8.90625 
Q 21.296875 6.109375 26.703125 6.109375 
Q 34.1875 6.109375 38.703125 11.40625 
Q 43.21875 16.703125 43.21875 25.484375 
L 43.21875 27.484375 
z
M 52.203125 31.203125 
L 52.203125 0 
L 43.21875 0 
L 43.21875 8.296875 
Q 40.140625 3.328125 35.546875 0.953125 
Q 30.953125 -1.421875 24.3125 -1.421875 
Q 15.921875 -1.421875 10.953125 3.296875 
Q 6 8.015625 6 15.921875 
Q 6 25.140625 12.171875 29.828125 
Q 18.359375 34.515625 30.609375 34.515625 
L 43.21875 34.515625 
L 43.21875 35.40625 
Q 43.21875 41.609375 39.140625 45 
Q 35.0625 48.390625 27.6875 48.390625 
Q 23 48.390625 18.546875 47.265625 
Q 14.109375 46.140625 10.015625 43.890625 
L 10.015625 52.203125 
Q 14.9375 54.109375 19.578125 55.046875 
Q 24.21875 56 28.609375 56 
Q 40.484375 56 46.34375 49.84375 
Q 52.203125 43.703125 52.203125 31.203125 
z
" id="DejaVuSans-97"/>
     <path d="M 32.171875 -5.078125 
Q 28.375 -14.84375 24.75 -17.8125 
Q 21.140625 -20.796875 15.09375 -20.796875 
L 7.90625 -20.796875 
L 7.90625 -13.28125 
L 13.1875 -13.28125 
Q 16.890625 -13.28125 18.9375 -11.515625 
Q 21 -9.765625 23.484375 -3.21875 
L 25.09375 0.875 
L 2.984375 54.6875 
L 12.5 54.6875 
L 29.59375 11.921875 
L 46.6875 54.6875 
L 56.203125 54.6875 
z
" id="DejaVuSans-121"/>
     <path d="M 11.71875 12.40625 
L 22.015625 12.40625 
L 22.015625 0 
L 11.71875 0 
z
M 11.71875 51.703125 
L 22.015625 51.703125 
L 22.015625 39.3125 
L 11.71875 39.3125 
z
" id="DejaVuSans-58"/>
     <path id="DejaVuSans-32"/>
     <path d="M 4.890625 31.390625 
L 31.203125 31.390625 
L 31.203125 23.390625 
L 4.890625 23.390625 
z
" id="DejaVuSans-45"/>
     <path d="M 54.890625 33.015625 
L 54.890625 0 
L 45.90625 0 
L 45.90625 32.71875 
Q 45.90625 40.484375 42.875 44.328125 
Q 39.84375 48.1875 33.796875 48.1875 
Q 26.515625 48.1875 22.3125 43.546875 
Q 18.109375 38.921875 18.109375 30.90625 
L 18.109375 0 
L 9.078125 0 
L 9.078125 54.6875 
L 18.109375 54.6875 
L 18.109375 46.1875 
Q 21.34375 51.125 25.703125 53.5625 
Q 30.078125 56 35.796875 56 
Q 45.21875 56 50.046875 50.171875 
Q 54.890625 44.34375 54.890625 33.015625 
z
" id="DejaVuSans-110"/>
     <path d="M 54.890625 33.015625 
L 54.890625 0 
L 45.90625 0 
L 45.90625 32.71875 
Q 45.90625 40.484375 42.875 44.328125 
Q 39.84375 48.1875 33.796875 48.1875 
Q 26.515625 48.1875 22.3125 43.546875 
Q 18.109375 38.921875 18.109375 30.90625 
L 18.109375 0 
L 9.078125 0 
L 9.078125 75.984375 
L 18.109375 75.984375 
L 18.109375 46.1875 
Q 21.34375 51.125 25.703125 53.5625 
Q 30.078125 56 35.796875 56 
Q 45.21875 56 50.046875 50.171875 
Q 54.890625 44.34375 54.890625 33.015625 
z
" id="DejaVuSans-104"/>
     <path d="M 45.40625 27.984375 
Q 45.40625 37.75 41.375 43.109375 
Q 37.359375 48.484375 30.078125 48.484375 
Q 22.859375 48.484375 18.828125 43.109375 
Q 14.796875 37.75 14.796875 27.984375 
Q 14.796875 18.265625 18.828125 12.890625 
Q 22.859375 7.515625 30.078125 7.515625 
Q 37.359375 7.515625 41.375 12.890625 
Q 45.40625 18.265625 45.40625 27.984375 
z
M 54.390625 6.78125 
Q 54.390625 -7.171875 48.1875 -13.984375 
Q 42 -20.796875 29.203125 -20.796875 
Q 24.46875 -20.796875 20.265625 -20.09375 
Q 16.0625 -19.390625 12.109375 -17.921875 
L 12.109375 -9.1875 
Q 16.0625 -11.328125 19.921875 -12.34375 
Q 23.78125 -13.375 27.78125 -13.375 
Q 36.625 -13.375 41.015625 -8.765625 
Q 45.40625 -4.15625 45.40625 5.171875 
L 45.40625 9.625 
Q 42.625 4.78125 38.28125 2.390625 
Q 33.9375 0 27.875 0 
Q 17.828125 0 11.671875 7.65625 
Q 5.515625 15.328125 5.515625 27.984375 
Q 5.515625 40.671875 11.671875 48.328125 
Q 17.828125 56 27.875 56 
Q 33.9375 56 38.28125 53.609375 
Q 42.625 51.21875 45.40625 46.390625 
L 45.40625 54.6875 
L 54.390625 54.6875 
z
" id="DejaVuSans-103"/>
    </defs>
    <g transform="translate(224.73575 17.229937)scale(0.132 -0.132)">
     <use xlink:href="#DejaVuSans-73"/>
     <use x="29.492188" xlink:href="#DejaVuSans-116"/>
     <use x="68.701172" xlink:href="#DejaVuSans-97"/>
     <use x="129.980469" xlink:href="#DejaVuSans-108"/>
     <use x="157.763672" xlink:href="#DejaVuSans-121"/>
     <use x="209.693359" xlink:href="#DejaVuSans-58"/>
     <use x="243.384766" xlink:href="#DejaVuSans-32"/>
     <use x="275.171875" xlink:href="#DejaVuSans-83"/>
     <use x="338.648438" xlink:href="#DejaVuSans-45"/>
     <use x="374.732422" xlink:href="#DejaVuSans-82"/>
     <use x="444.214844" xlink:href="#DejaVuSans-32"/>
     <use x="476.001953" xlink:href="#DejaVuSans-116"/>
     <use x="515.210938" xlink:href="#DejaVuSans-114"/>
     <use x="554.074219" xlink:href="#DejaVuSans-101"/>
     <use x="615.597656" xlink:href="#DejaVuSans-110"/>
     <use x="678.976562" xlink:href="#DejaVuSans-100"/>
     <use x="742.453125" xlink:href="#DejaVuSans-32"/>
     <use x="774.240234" xlink:href="#DejaVuSans-99"/>
     <use x="829.220703" xlink:href="#DejaVuSans-104"/>
     <use x="892.599609" xlink:href="#DejaVuSans-97"/>
     <use x="953.878906" xlink:href="#DejaVuSans-110"/>
     <use x="1017.257812" xlink:href="#DejaVuSans-103"/>
     <use x="1080.734375" xlink:href="#DejaVuSans-101"/>
     <use x="1142.257812" xlink:href="#DejaVuSans-100"/>
     <use x="1205.734375" xlink:href="#DejaVuSans-32"/>
     <use x="1237.521484" xlink:href="#DejaVuSans-111"/>
     <use x="1298.703125" xlink:href="#DejaVuSans-110"/>
    </g>
    <!-- 22Mar2020, 31Mar2020, 06Apr2020, 11Apr2020, 16Apr2020, 21Apr2020, -->
    <defs>
     <path d="M 9.8125 72.90625 
L 24.515625 72.90625 
L 43.109375 23.296875 
L 61.8125 72.90625 
L 76.515625 72.90625 
L 76.515625 0 
L 66.890625 0 
L 66.890625 64.015625 
L 48.09375 14.015625 
L 38.1875 14.015625 
L 19.390625 64.015625 
L 19.390625 0 
L 9.8125 0 
z
" id="DejaVuSans-77"/>
     <path d="M 11.71875 12.40625 
L 22.015625 12.40625 
L 22.015625 4 
L 14.015625 -11.625 
L 7.71875 -11.625 
L 11.71875 4 
z
" id="DejaVuSans-44"/>
     <path d="M 34.1875 63.1875 
L 20.796875 26.90625 
L 47.609375 26.90625 
z
M 28.609375 72.90625 
L 39.796875 72.90625 
L 67.578125 0 
L 57.328125 0 
L 50.6875 18.703125 
L 17.828125 18.703125 
L 11.1875 0 
L 0.78125 0 
z
" id="DejaVuSans-65"/>
    </defs>
    <g transform="translate(69.811063 32.01105)scale(0.132 -0.132)">
     <use xlink:href="#DejaVuSans-50"/>
     <use x="63.623047" xlink:href="#DejaVuSans-50"/>
     <use x="127.246094" xlink:href="#DejaVuSans-77"/>
     <use x="213.525391" xlink:href="#DejaVuSans-97"/>
     <use x="274.804688" xlink:href="#DejaVuSans-114"/>
     <use x="315.917969" xlink:href="#DejaVuSans-50"/>
     <use x="379.541016" xlink:href="#DejaVuSans-48"/>
     <use x="443.164062" xlink:href="#DejaVuSans-50"/>
     <use x="506.787109" xlink:href="#DejaVuSans-48"/>
     <use x="570.410156" xlink:href="#DejaVuSans-44"/>
     <use x="602.197266" xlink:href="#DejaVuSans-32"/>
     <use x="633.984375" xlink:href="#DejaVuSans-51"/>
     <use x="697.607422" xlink:href="#DejaVuSans-49"/>
     <use x="761.230469" xlink:href="#DejaVuSans-77"/>
     <use x="847.509766" xlink:href="#DejaVuSans-97"/>
     <use x="908.789062" xlink:href="#DejaVuSans-114"/>
     <use x="949.902344" xlink:href="#DejaVuSans-50"/>
     <use x="1013.525391" xlink:href="#DejaVuSans-48"/>
     <use x="1077.148438" xlink:href="#DejaVuSans-50"/>
     <use x="1140.771484" xlink:href="#DejaVuSans-48"/>
     <use x="1204.394531" xlink:href="#DejaVuSans-44"/>
     <use x="1236.181641" xlink:href="#DejaVuSans-32"/>
     <use x="1267.96875" xlink:href="#DejaVuSans-48"/>
     <use x="1331.591797" xlink:href="#DejaVuSans-54"/>
     <use x="1395.214844" xlink:href="#DejaVuSans-65"/>
     <use x="1463.623047" xlink:href="#DejaVuSans-112"/>
     <use x="1527.099609" xlink:href="#DejaVuSans-114"/>
     <use x="1568.212891" xlink:href="#DejaVuSans-50"/>
     <use x="1631.835938" xlink:href="#DejaVuSans-48"/>
     <use x="1695.458984" xlink:href="#DejaVuSans-50"/>
     <use x="1759.082031" xlink:href="#DejaVuSans-48"/>
     <use x="1822.705078" xlink:href="#DejaVuSans-44"/>
     <use x="1854.492188" xlink:href="#DejaVuSans-32"/>
     <use x="1886.279297" xlink:href="#DejaVuSans-49"/>
     <use x="1949.902344" xlink:href="#DejaVuSans-49"/>
     <use x="2013.525391" xlink:href="#DejaVuSans-65"/>
     <use x="2081.933594" xlink:href="#DejaVuSans-112"/>
     <use x="2145.410156" xlink:href="#DejaVuSans-114"/>
     <use x="2186.523438" xlink:href="#DejaVuSans-50"/>
     <use x="2250.146484" xlink:href="#DejaVuSans-48"/>
     <use x="2313.769531" xlink:href="#DejaVuSans-50"/>
     <use x="2377.392578" xlink:href="#DejaVuSans-48"/>
     <use x="2441.015625" xlink:href="#DejaVuSans-44"/>
     <use x="2472.802734" xlink:href="#DejaVuSans-32"/>
     <use x="2504.589844" xlink:href="#DejaVuSans-49"/>
     <use x="2568.212891" xlink:href="#DejaVuSans-54"/>
     <use x="2631.835938" xlink:href="#DejaVuSans-65"/>
     <use x="2700.244141" xlink:href="#DejaVuSans-112"/>
     <use x="2763.720703" xlink:href="#DejaVuSans-114"/>
     <use x="2804.833984" xlink:href="#DejaVuSans-50"/>
     <use x="2868.457031" xlink:href="#DejaVuSans-48"/>
     <use x="2932.080078" xlink:href="#DejaVuSans-50"/>
     <use x="2995.703125" xlink:href="#DejaVuSans-48"/>
     <use x="3059.326172" xlink:href="#DejaVuSans-44"/>
     <use x="3091.113281" xlink:href="#DejaVuSans-32"/>
     <use x="3122.900391" xlink:href="#DejaVuSans-50"/>
     <use x="3186.523438" xlink:href="#DejaVuSans-49"/>
     <use x="3250.146484" xlink:href="#DejaVuSans-65"/>
     <use x="3318.554688" xlink:href="#DejaVuSans-112"/>
     <use x="3382.03125" xlink:href="#DejaVuSans-114"/>
     <use x="3423.144531" xlink:href="#DejaVuSans-50"/>
     <use x="3486.767578" xlink:href="#DejaVuSans-48"/>
     <use x="3550.390625" xlink:href="#DejaVuSans-50"/>
     <use x="3614.013672" xlink:href="#DejaVuSans-48"/>
     <use x="3677.636719" xlink:href="#DejaVuSans-44"/>
    </g>
    <!-- 25Apr2020, 02May2020, 09May2020, 20May2020, 06Jun2020 -->
    <defs>
     <path d="M 10.984375 1.515625 
L 10.984375 10.5 
Q 14.703125 8.734375 18.5 7.8125 
Q 22.3125 6.890625 25.984375 6.890625 
Q 35.75 6.890625 40.890625 13.453125 
Q 46.046875 20.015625 46.78125 33.40625 
Q 43.953125 29.203125 39.59375 26.953125 
Q 35.25 24.703125 29.984375 24.703125 
Q 19.046875 24.703125 12.671875 31.3125 
Q 6.296875 37.9375 6.296875 49.421875 
Q 6.296875 60.640625 12.9375 67.421875 
Q 19.578125 74.21875 30.609375 74.21875 
Q 43.265625 74.21875 49.921875 64.515625 
Q 56.59375 54.828125 56.59375 36.375 
Q 56.59375 19.140625 48.40625 8.859375 
Q 40.234375 -1.421875 26.421875 -1.421875 
Q 22.703125 -1.421875 18.890625 -0.6875 
Q 15.09375 0.046875 10.984375 1.515625 
z
M 30.609375 32.421875 
Q 37.25 32.421875 41.125 36.953125 
Q 45.015625 41.5 45.015625 49.421875 
Q 45.015625 57.28125 41.125 61.84375 
Q 37.25 66.40625 30.609375 66.40625 
Q 23.96875 66.40625 20.09375 61.84375 
Q 16.21875 57.28125 16.21875 49.421875 
Q 16.21875 41.5 20.09375 36.953125 
Q 23.96875 32.421875 30.609375 32.421875 
z
" id="DejaVuSans-57"/>
     <path d="M 9.8125 72.90625 
L 19.671875 72.90625 
L 19.671875 5.078125 
Q 19.671875 -8.109375 14.671875 -14.0625 
Q 9.671875 -20.015625 -1.421875 -20.015625 
L -5.171875 -20.015625 
L -5.171875 -11.71875 
L -2.09375 -11.71875 
Q 4.4375 -11.71875 7.125 -8.046875 
Q 9.8125 -4.390625 9.8125 5.078125 
z
" id="DejaVuSans-74"/>
    </defs>
    <g transform="translate(109.208938 46.792162)scale(0.132 -0.132)">
     <use xlink:href="#DejaVuSans-50"/>
     <use x="63.623047" xlink:href="#DejaVuSans-53"/>
     <use x="127.246094" xlink:href="#DejaVuSans-65"/>
     <use x="195.654297" xlink:href="#DejaVuSans-112"/>
     <use x="259.130859" xlink:href="#DejaVuSans-114"/>
     <use x="300.244141" xlink:href="#DejaVuSans-50"/>
     <use x="363.867188" xlink:href="#DejaVuSans-48"/>
     <use x="427.490234" xlink:href="#DejaVuSans-50"/>
     <use x="491.113281" xlink:href="#DejaVuSans-48"/>
     <use x="554.736328" xlink:href="#DejaVuSans-44"/>
     <use x="586.523438" xlink:href="#DejaVuSans-32"/>
     <use x="618.310547" xlink:href="#DejaVuSans-48"/>
     <use x="681.933594" xlink:href="#DejaVuSans-50"/>
     <use x="745.556641" xlink:href="#DejaVuSans-77"/>
     <use x="831.835938" xlink:href="#DejaVuSans-97"/>
     <use x="893.115234" xlink:href="#DejaVuSans-121"/>
     <use x="952.294922" xlink:href="#DejaVuSans-50"/>
     <use x="1015.917969" xlink:href="#DejaVuSans-48"/>
     <use x="1079.541016" xlink:href="#DejaVuSans-50"/>
     <use x="1143.164062" xlink:href="#DejaVuSans-48"/>
     <use x="1206.787109" xlink:href="#DejaVuSans-44"/>
     <use x="1238.574219" xlink:href="#DejaVuSans-32"/>
     <use x="1270.361328" xlink:href="#DejaVuSans-48"/>
     <use x="1333.984375" xlink:href="#DejaVuSans-57"/>
     <use x="1397.607422" xlink:href="#DejaVuSans-77"/>
     <use x="1483.886719" xlink:href="#DejaVuSans-97"/>
     <use x="1545.166016" xlink:href="#DejaVuSans-121"/>
     <use x="1604.345703" xlink:href="#DejaVuSans-50"/>
     <use x="1667.96875" xlink:href="#DejaVuSans-48"/>
     <use x="1731.591797" xlink:href="#DejaVuSans-50"/>
     <use x="1795.214844" xlink:href="#DejaVuSans-48"/>
     <use x="1858.837891" xlink:href="#DejaVuSans-44"/>
     <use x="1890.625" xlink:href="#DejaVuSans-32"/>
     <use x="1922.412109" xlink:href="#DejaVuSans-50"/>
     <use x="1986.035156" xlink:href="#DejaVuSans-48"/>
     <use x="2049.658203" xlink:href="#DejaVuSans-77"/>
     <use x="2135.9375" xlink:href="#DejaVuSans-97"/>
     <use x="2197.216797" xlink:href="#DejaVuSans-121"/>
     <use x="2256.396484" xlink:href="#DejaVuSans-50"/>
     <use x="2320.019531" xlink:href="#DejaVuSans-48"/>
     <use x="2383.642578" xlink:href="#DejaVuSans-50"/>
     <use x="2447.265625" xlink:href="#DejaVuSans-48"/>
     <use x="2510.888672" xlink:href="#DejaVuSans-44"/>
     <use x="2542.675781" xlink:href="#DejaVuSans-32"/>
     <use x="2574.462891" xlink:href="#DejaVuSans-48"/>
     <use x="2638.085938" xlink:href="#DejaVuSans-54"/>
     <use x="2701.708984" xlink:href="#DejaVuSans-74"/>
     <use x="2731.201172" xlink:href="#DejaVuSans-117"/>
     <use x="2794.580078" xlink:href="#DejaVuSans-110"/>
     <use x="2857.958984" xlink:href="#DejaVuSans-50"/>
     <use x="2921.582031" xlink:href="#DejaVuSans-48"/>
     <use x="2985.205078" xlink:href="#DejaVuSans-50"/>
     <use x="3048.828125" xlink:href="#DejaVuSans-48"/>
    </g>
   </g>
   <g id="legend_1">
    <g id="line2d_37">
     <path d="M 561.663858 199.389194 
L 583.663858 199.389194 
" style="fill:none;"/>
    </g>
    <g id="line2d_38">
     <g>
      <use x="572.663858" xlink:href="#me46f365b62" y="199.389194"/>
     </g>
    </g>
    <g id="text_18">
     <!-- Actual -->
     <g transform="translate(592.463858 203.239194)scale(0.11 -0.11)">
      <use xlink:href="#DejaVuSans-65"/>
      <use x="66.658203" xlink:href="#DejaVuSans-99"/>
      <use x="121.638672" xlink:href="#DejaVuSans-116"/>
      <use x="160.847656" xlink:href="#DejaVuSans-117"/>
      <use x="224.226562" xlink:href="#DejaVuSans-97"/>
      <use x="285.505859" xlink:href="#DejaVuSans-108"/>
     </g>
    </g>
    <g id="line2d_39">
     <path d="M 561.663858 215.535131 
L 583.663858 215.535131 
" style="fill:none;stroke:#1f77b4;stroke-linecap:square;stroke-width:1.5;"/>
    </g>
    <g id="line2d_40"/>
    <g id="text_19">
     <!-- 1st -->
     <g transform="translate(592.463858 219.385131)scale(0.11 -0.11)">
      <use xlink:href="#DejaVuSans-49"/>
      <use x="63.623047" xlink:href="#DejaVuSans-115"/>
      <use x="115.722656" xlink:href="#DejaVuSans-116"/>
     </g>
    </g>
    <g id="line2d_41">
     <path d="M 561.663858 231.681069 
L 583.663858 231.681069 
" style="fill:none;stroke:#ff7f0e;stroke-linecap:square;stroke-width:1.5;"/>
    </g>
    <g id="line2d_42"/>
    <g id="text_20">
     <!-- 2nd -->
     <g transform="translate(592.463858 235.531069)scale(0.11 -0.11)">
      <use xlink:href="#DejaVuSans-50"/>
      <use x="63.623047" xlink:href="#DejaVuSans-110"/>
      <use x="127.001953" xlink:href="#DejaVuSans-100"/>
     </g>
    </g>
    <g id="line2d_43">
     <path d="M 561.663858 247.827006 
L 583.663858 247.827006 
" style="fill:none;stroke:#2ca02c;stroke-linecap:square;stroke-width:1.5;"/>
    </g>
    <g id="line2d_44"/>
    <g id="text_21">
     <!-- 3rd -->
     <g transform="translate(592.463858 251.677006)scale(0.11 -0.11)">
      <use xlink:href="#DejaVuSans-51"/>
      <use x="63.623047" xlink:href="#DejaVuSans-114"/>
      <use x="102.986328" xlink:href="#DejaVuSans-100"/>
     </g>
    </g>
    <g id="line2d_45">
     <path d="M 561.663858 263.972944 
L 583.663858 263.972944 
" style="fill:none;stroke:#d62728;stroke-linecap:square;stroke-width:1.5;"/>
    </g>
    <g id="line2d_46"/>
    <g id="text_22">
     <!-- 4th -->
     <g transform="translate(592.463858 267.822944)scale(0.11 -0.11)">
      <use xlink:href="#DejaVuSans-52"/>
      <use x="63.623047" xlink:href="#DejaVuSans-116"/>
      <use x="102.832031" xlink:href="#DejaVuSans-104"/>
     </g>
    </g>
    <g id="line2d_47">
     <path d="M 561.663858 280.118881 
L 583.663858 280.118881 
" style="fill:none;stroke:#9467bd;stroke-linecap:square;stroke-width:1.5;"/>
    </g>
    <g id="line2d_48"/>
    <g id="text_23">
     <!-- 5th -->
     <g transform="translate(592.463858 283.968881)scale(0.11 -0.11)">
      <use xlink:href="#DejaVuSans-53"/>
      <use x="63.623047" xlink:href="#DejaVuSans-116"/>
      <use x="102.832031" xlink:href="#DejaVuSans-104"/>
     </g>
    </g>
    <g id="line2d_49">
     <path d="M 561.663858 296.264819 
L 583.663858 296.264819 
" style="fill:none;stroke:#8c564b;stroke-linecap:square;stroke-width:1.5;"/>
    </g>
    <g id="line2d_50"/>
    <g id="text_24">
     <!-- 6th -->
     <g transform="translate(592.463858 300.114819)scale(0.11 -0.11)">
      <use xlink:href="#DejaVuSans-54"/>
      <use x="63.623047" xlink:href="#DejaVuSans-116"/>
      <use x="102.832031" xlink:href="#DejaVuSans-104"/>
     </g>
    </g>
    <g id="line2d_51">
     <path d="M 561.663858 312.410756 
L 583.663858 312.410756 
" style="fill:none;stroke:#e377c2;stroke-linecap:square;stroke-width:1.5;"/>
    </g>
    <g id="line2d_52"/>
    <g id="text_25">
     <!-- 7th -->
     <g transform="translate(592.463858 316.260756)scale(0.11 -0.11)">
      <use xlink:href="#DejaVuSans-55"/>
      <use x="63.623047" xlink:href="#DejaVuSans-116"/>
      <use x="102.832031" xlink:href="#DejaVuSans-104"/>
     </g>
    </g>
    <g id="line2d_53">
     <path d="M 561.663858 328.556694 
L 583.663858 328.556694 
" style="fill:none;stroke:#7f7f7f;stroke-linecap:square;stroke-width:1.5;"/>
    </g>
    <g id="line2d_54"/>
    <g id="text_26">
     <!-- 8th -->
     <defs>
      <path d="M 31.78125 34.625 
Q 24.75 34.625 20.71875 30.859375 
Q 16.703125 27.09375 16.703125 20.515625 
Q 16.703125 13.921875 20.71875 10.15625 
Q 24.75 6.390625 31.78125 6.390625 
Q 38.8125 6.390625 42.859375 10.171875 
Q 46.921875 13.96875 46.921875 20.515625 
Q 46.921875 27.09375 42.890625 30.859375 
Q 38.875 34.625 31.78125 34.625 
z
M 21.921875 38.8125 
Q 15.578125 40.375 12.03125 44.71875 
Q 8.5 49.078125 8.5 55.328125 
Q 8.5 64.0625 14.71875 69.140625 
Q 20.953125 74.21875 31.78125 74.21875 
Q 42.671875 74.21875 48.875 69.140625 
Q 55.078125 64.0625 55.078125 55.328125 
Q 55.078125 49.078125 51.53125 44.71875 
Q 48 40.375 41.703125 38.8125 
Q 48.828125 37.15625 52.796875 32.3125 
Q 56.78125 27.484375 56.78125 20.515625 
Q 56.78125 9.90625 50.3125 4.234375 
Q 43.84375 -1.421875 31.78125 -1.421875 
Q 19.734375 -1.421875 13.25 4.234375 
Q 6.78125 9.90625 6.78125 20.515625 
Q 6.78125 27.484375 10.78125 32.3125 
Q 14.796875 37.15625 21.921875 38.8125 
z
M 18.3125 54.390625 
Q 18.3125 48.734375 21.84375 45.5625 
Q 25.390625 42.390625 31.78125 42.390625 
Q 38.140625 42.390625 41.71875 45.5625 
Q 45.3125 48.734375 45.3125 54.390625 
Q 45.3125 60.0625 41.71875 63.234375 
Q 38.140625 66.40625 31.78125 66.40625 
Q 25.390625 66.40625 21.84375 63.234375 
Q 18.3125 60.0625 18.3125 54.390625 
z
" id="DejaVuSans-56"/>
     </defs>
     <g transform="translate(592.463858 332.406694)scale(0.11 -0.11)">
      <use xlink:href="#DejaVuSans-56"/>
      <use x="63.623047" xlink:href="#DejaVuSans-116"/>
      <use x="102.832031" xlink:href="#DejaVuSans-104"/>
     </g>
    </g>
    <g id="line2d_55">
     <path d="M 561.663858 344.702631 
L 583.663858 344.702631 
" style="fill:none;stroke:#bcbd22;stroke-linecap:square;stroke-width:1.5;"/>
    </g>
    <g id="line2d_56"/>
    <g id="text_27">
     <!-- 9th -->
     <g transform="translate(592.463858 348.552631)scale(0.11 -0.11)">
      <use xlink:href="#DejaVuSans-57"/>
      <use x="63.623047" xlink:href="#DejaVuSans-116"/>
      <use x="102.832031" xlink:href="#DejaVuSans-104"/>
     </g>
    </g>
    <g id="line2d_57">
     <path d="M 561.663858 360.848569 
L 583.663858 360.848569 
" style="fill:none;stroke:#17becf;stroke-linecap:square;stroke-width:1.5;"/>
    </g>
    <g id="line2d_58"/>
    <g id="text_28">
     <!-- 10th -->
     <g transform="translate(592.463858 364.698569)scale(0.11 -0.11)">
      <use xlink:href="#DejaVuSans-49"/>
      <use x="63.623047" xlink:href="#DejaVuSans-48"/>
      <use x="127.246094" xlink:href="#DejaVuSans-116"/>
      <use x="166.455078" xlink:href="#DejaVuSans-104"/>
     </g>
    </g>
    <g id="line2d_59">
     <path d="M 561.663858 376.994506 
L 583.663858 376.994506 
" style="fill:none;stroke:#1f77b4;stroke-linecap:square;stroke-width:1.5;"/>
    </g>
    <g id="line2d_60"/>
    <g id="text_29">
     <!-- 11th -->
     <g transform="translate(592.463858 380.844506)scale(0.11 -0.11)">
      <use xlink:href="#DejaVuSans-49"/>
      <use x="63.623047" xlink:href="#DejaVuSans-49"/>
      <use x="127.246094" xlink:href="#DejaVuSans-116"/>
      <use x="166.455078" xlink:href="#DejaVuSans-104"/>
     </g>
    </g>
   </g>
  </g>
 </g>
 <defs>
  <clipPath id="pcb917bd313">
   <rect height="334.74" width="466.596" x="81.335938" y="52.792162"/>
  </clipPath>
 </defs>
</svg>
